==================================================
Please seed after your download completes , thanks 
==================================================

General
Format                           : Matroska
File size                        : 699 MiB
Duration                         : 1h 37mn
Overall bit rate                 : 998 Kbps
Movie name                       : How To Train Your Dragon 2010 BDrip 720p x264 [Herakler-Vnsharing.net]
Encoded date                     : UTC 2010-12-02 05:27:48
Encoder                          : Herakler - Vnsharing.net
Writing application              : mkvmerge v3.2.0 ('Beginnings') built on Feb 12 2010 16:46:17
Writing library                  : libebml v0.7.9 + libmatroska v0.8.1

Video
ID                               : 1
Format                           : AVC
Format/Info                      : Advanced Video Codec
Format profile                   : High@L4.0
Format settings, CABAC           : Yes
Format settings, ReFrames        : 3 frames
Format settings, GOP             : M=4, N=48
Codec ID                         : V_MPEG4/ISO/AVC
Duration                         : 1h 37mn
Bit rate mode                    : Variable
Bit rate                         : 869 Kbps
Maximum bit rate                 : 25.0 Mbps
Width                            : 1 280 pixels
Height                           : 544 pixels
Display aspect ratio             : 2.35:1
Frame rate                       : 23.976 fps
Color space                      : YUV
Chroma subsampling               : 4:2:0
Bit depth                        : 8 bits
Scan type                        : Progressive
Bits/(Pixel*Frame)               : 0.052
Stream size                      : 595 MiB (85%)
Writing library                  : x264 core 105 r1732 2b04482

Audio
ID                               : 2
Format                           : AC-3
Format/Info                      : Audio Coding 3
Mode extension                   : CM (complete main)
Codec ID                         : A_AC3
Duration                         : 1h 37mn
Bit rate mode                    : Constant
Channel(s)                       : 2 channels
Channel positions                : Front: L R
Sampling rate                    : 48.0 KHz
Bit depth                        : 16 bits
Stream size                      : 89.6 MiB (13%)

Text #1
ID                               : 3
Format                           : UTF-8
Codec ID                         : S_TEXT/UTF8
Codec ID/Info                    : UTF-8 Plain Text
Language                         : Vietnamese

Text #2
ID                               : 4
Format                           : ASS
Codec ID                         : S_TEXT/ASS
Codec ID/Info                    : Advanced Sub Station Alpha
Language                         : Vietnamese

Text #3
ID                               : 5
Format                           : UTF-8
Codec ID                         : S_TEXT/UTF8
Codec ID/Info                    : UTF-8 Plain Text
Language                         : English

Text #4
ID                               : 6
Format                           : UTF-8
Codec ID                         : S_TEXT/UTF8
Codec ID/Info                    : UTF-8 Plain Text
Language                         : French

Text #5
ID                               : 7
Format                           : UTF-8
Codec ID                         : S_TEXT/UTF8
Codec ID/Info                    : UTF-8 Plain Text
Language                         : Portuguese

Text #6
ID                               : 8
Format                           : UTF-8
Codec ID                         : S_TEXT/UTF8
Codec ID/Info                    : UTF-8 Plain Text
Language                         : Russian

Screenshot
http://img189.imageshack.us/img189/9958/howtotrainyourdragon201.jpg